<?xml version="1.0" standalone="no"?>
<!DOCTYPE svg PUBLIC "-//W3C//DTD SVG 20010904//EN"
 "http://www.w3.org/TR/2001/REC-SVG-20010904/DTD/svg10.dtd">
<svg version="1.0" xmlns="http://www.w3.org/2000/svg"
 width="192.000000pt" height="162.000000pt" viewBox="0 0 192.000000 162.000000"
 preserveAspectRatio="xMidYMid meet">

<g transform="translate(0.000000,162.000000) scale(0.100000,-0.100000)"
fill="#000000" stroke="none">
<path d="M142 1554 c-27 -19 -29 -64 -4 -87 14 -12 43 -17 127 -19 l109 -3 32
-155 c18 -85 42 -198 53 -250 12 -52 39 -183 62 -290 59 -285 63 -300 88 -326
l23 -24 494 0 494 0 15 24 c19 28 7 69 -24 85 -13 7 -172 11 -470 11 l-451 0
-6 25 c-3 13 -4 29 -2 35 2 8 139 11 453 11 248 0 465 3 484 7 50 11 69 45 95
172 49 236 68 327 87 408 26 115 25 146 -7 171 -26 21 -35 21 -655 21 l-629 0
-4 23 c-36 175 -39 177 -218 177 -96 0 -129 -4 -146 -16z m698 -341 c0 -21 3
-68 7 -105 l6 -68 -136 0 c-134 0 -137 1 -142 23 -9 41 -35 176 -35 182 0 3
68 5 150 5 l150 0 0 -37z m430 -65 l-5 -103 -143 -3 c-109 -2 -143 0 -146 10
-2 7 -8 55 -13 106 l-8 92 160 0 160 0 -5 -102z m420 95 c0 -19 -34 -171 -42
-185 -8 -16 -25 -18 -133 -18 l-125 0 0 44 c0 23 3 71 6 105 l7 61 143 0 c79
0 144 -3 144 -7z m-819 -364 c4 -24 8 -71 10 -104 l3 -60 -117 -3 -116 -3 -6
28 c-3 15 -13 56 -21 90 -24 105 -32 98 114 97 l127 -1 6 -44z m377 -61 l-3
-103 -116 -3 -116 -3 -6 38 c-4 21 -9 68 -13 106 l-7 67 132 0 132 0 -3 -102z
m372 88 c0 -7 -4 -26 -9 -42 -5 -16 -15 -57 -21 -91 l-13 -63 -103 0 -104 0 0
53 c0 28 3 76 6 105 l7 52 118 0 c93 0 119 -3 119 -14z"/>
<path d="M750 313 c-30 -11 -70 -57 -76 -89 -14 -75 43 -144 117 -144 92 1
149 102 102 181 -27 45 -94 70 -143 52z"/>
<path d="M1378 304 c-77 -41 -75 -169 2 -209 81 -42 180 16 180 105 0 88 -103
147 -182 104z"/>
</g>
</svg>
